<mxfile host="app.diagrams.net" modified="2024-06-12T10:28:06.292Z" agent="Mozilla/5.0 (X11; Linux x86_64) AppleWebKit/537.36 (KHTML, like Gecko) Chrome/124.0.0.0 Safari/537.36" etag="O3zRUy-JokbYcDGymnxH" version="24.4.13" type="device">
  <diagram name="Page-1" id="OBTCEqnuUxD3maQZ14NK">
    <mxGraphModel dx="2263" dy="2004" grid="0" gridSize="10" guides="1" tooltips="1" connect="1" arrows="1" fold="1" page="1" pageScale="1" pageWidth="827" pageHeight="1169" background="none" math="0" shadow="0">
      <root>
        <mxCell id="0" />
        <mxCell id="1" parent="0" />
        <mxCell id="Wt4DMF_DOXwwDk3LnzIc-2" value="" style="rounded=0;whiteSpace=wrap;html=1;fillColor=#dae8fc;strokeColor=#6c8ebf;" vertex="1" parent="1">
          <mxGeometry x="-170" y="36" width="1206" height="612" as="geometry" />
        </mxCell>
        <mxCell id="Wt4DMF_DOXwwDk3LnzIc-3" value="" style="rounded=0;whiteSpace=wrap;html=1;fillColor=#f5f5f5;strokeColor=#666666;fontColor=#333333;" vertex="1" parent="1">
          <mxGeometry x="-143" y="56" width="1156" height="578" as="geometry" />
        </mxCell>
        <mxCell id="Wt4DMF_DOXwwDk3LnzIc-4" value="" style="aspect=fixed;sketch=0;html=1;dashed=0;whitespace=wrap;verticalLabelPosition=bottom;verticalAlign=top;fillColor=#2875E2;strokeColor=#ffffff;points=[[0.005,0.63,0],[0.1,0.2,0],[0.9,0.2,0],[0.5,0,0],[0.995,0.63,0],[0.72,0.99,0],[0.5,1,0],[0.28,0.99,0]];shape=mxgraph.kubernetes.icon2;kubernetesLabel=1;prIcon=node" vertex="1" parent="1">
          <mxGeometry x="-161" y="44" width="40.63" height="39" as="geometry" />
        </mxCell>
        <mxCell id="Wt4DMF_DOXwwDk3LnzIc-5" value="" style="rounded=0;whiteSpace=wrap;html=1;fillColor=#dae8fc;strokeColor=#6c8ebf;" vertex="1" parent="1">
          <mxGeometry x="253.75" y="131" width="390" height="219" as="geometry" />
        </mxCell>
        <mxCell id="Wt4DMF_DOXwwDk3LnzIc-13" value="" style="rounded=0;whiteSpace=wrap;html=1;fillColor=#dae8fc;strokeColor=#6c8ebf;" vertex="1" parent="1">
          <mxGeometry x="254" y="393" width="389.75" height="180" as="geometry" />
        </mxCell>
        <mxCell id="Wt4DMF_DOXwwDk3LnzIc-9" value="&lt;div&gt;&lt;br&gt;&lt;/div&gt;" style="aspect=fixed;sketch=0;html=1;dashed=0;whitespace=wrap;verticalLabelPosition=bottom;verticalAlign=top;fillColor=#2875E2;strokeColor=#ffffff;points=[[0.005,0.63,0],[0.1,0.2,0],[0.9,0.2,0],[0.5,0,0],[0.995,0.63,0],[0.72,0.99,0],[0.5,1,0],[0.28,0.99,0]];shape=mxgraph.kubernetes.icon2;prIcon=svc" vertex="1" parent="1">
          <mxGeometry x="225.21" y="369" width="40.62" height="39" as="geometry" />
        </mxCell>
        <mxCell id="Wt4DMF_DOXwwDk3LnzIc-11" value="" style="aspect=fixed;sketch=0;html=1;dashed=0;whitespace=wrap;verticalLabelPosition=bottom;verticalAlign=top;fillColor=#2875E2;strokeColor=#ffffff;points=[[0.005,0.63,0],[0.1,0.2,0],[0.9,0.2,0],[0.5,0,0],[0.995,0.63,0],[0.72,0.99,0],[0.5,1,0],[0.28,0.99,0]];shape=mxgraph.kubernetes.icon2;prIcon=svc" vertex="1" parent="1">
          <mxGeometry x="226.25" y="108" width="39.58" height="38" as="geometry" />
        </mxCell>
        <mxCell id="Wt4DMF_DOXwwDk3LnzIc-19" value="" style="rounded=0;whiteSpace=wrap;html=1;fillColor=#ffe6cc;strokeColor=#d79b00;" vertex="1" parent="1">
          <mxGeometry x="285.25" y="145" width="327" height="192" as="geometry" />
        </mxCell>
        <mxCell id="Wt4DMF_DOXwwDk3LnzIc-23" value="Topic: orders" style="verticalLabelPosition=bottom;html=1;verticalAlign=top;align=center;strokeColor=none;fillColor=#00BEF2;shape=mxgraph.azure.queue_generic;pointerEvents=1;" vertex="1" parent="1">
          <mxGeometry x="392" y="186.5" width="110.28" height="32" as="geometry" />
        </mxCell>
        <mxCell id="Wt4DMF_DOXwwDk3LnzIc-24" value="Topic: orders-status" style="verticalLabelPosition=bottom;html=1;verticalAlign=top;align=center;strokeColor=none;fillColor=#00BEF2;shape=mxgraph.azure.queue_generic;pointerEvents=1;" vertex="1" parent="1">
          <mxGeometry x="393.62" y="268" width="110.28" height="32" as="geometry" />
        </mxCell>
        <mxCell id="Wt4DMF_DOXwwDk3LnzIc-25" value="kafka" style="aspect=fixed;sketch=0;html=1;dashed=0;whitespace=wrap;verticalLabelPosition=bottom;verticalAlign=top;fillColor=#2875E2;strokeColor=#ffffff;points=[[0.005,0.63,0],[0.1,0.2,0],[0.9,0.2,0],[0.5,0,0],[0.995,0.63,0],[0.72,0.99,0],[0.5,1,0],[0.28,0.99,0]];shape=mxgraph.kubernetes.icon2;prIcon=pod" vertex="1" parent="1">
          <mxGeometry x="274.25" y="135" width="26.05" height="25" as="geometry" />
        </mxCell>
        <mxCell id="Wt4DMF_DOXwwDk3LnzIc-75" style="edgeStyle=orthogonalEdgeStyle;rounded=0;orthogonalLoop=1;jettySize=auto;html=1;exitX=1;exitY=0;exitDx=0;exitDy=0;entryX=1;entryY=1;entryDx=0;entryDy=0;" edge="1" parent="1" source="Wt4DMF_DOXwwDk3LnzIc-33" target="Wt4DMF_DOXwwDk3LnzIc-38">
          <mxGeometry relative="1" as="geometry" />
        </mxCell>
        <mxCell id="Wt4DMF_DOXwwDk3LnzIc-33" value="" style="rounded=0;whiteSpace=wrap;html=1;fillColor=#dae8fc;strokeColor=#6c8ebf;" vertex="1" parent="1">
          <mxGeometry x="-89" y="131" width="201" height="220" as="geometry" />
        </mxCell>
        <mxCell id="Wt4DMF_DOXwwDk3LnzIc-34" value="" style="aspect=fixed;sketch=0;html=1;dashed=0;whitespace=wrap;verticalLabelPosition=bottom;verticalAlign=top;fillColor=#2875E2;strokeColor=#ffffff;points=[[0.005,0.63,0],[0.1,0.2,0],[0.9,0.2,0],[0.5,0,0],[0.995,0.63,0],[0.72,0.99,0],[0.5,1,0],[0.28,0.99,0]];shape=mxgraph.kubernetes.icon2;prIcon=svc" vertex="1" parent="1">
          <mxGeometry x="-114" y="108" width="41.14" height="39.5" as="geometry" />
        </mxCell>
        <mxCell id="Wt4DMF_DOXwwDk3LnzIc-73" style="edgeStyle=orthogonalEdgeStyle;rounded=0;orthogonalLoop=1;jettySize=auto;html=1;exitX=0.995;exitY=0.63;exitDx=0;exitDy=0;exitPerimeter=0;entryX=1;entryY=0.5;entryDx=0;entryDy=0;" edge="1" parent="1" source="Wt4DMF_DOXwwDk3LnzIc-37" target="Wt4DMF_DOXwwDk3LnzIc-13">
          <mxGeometry relative="1" as="geometry" />
        </mxCell>
        <mxCell id="Wt4DMF_DOXwwDk3LnzIc-37" value="stock-app" style="aspect=fixed;sketch=0;html=1;dashed=0;whitespace=wrap;verticalLabelPosition=bottom;verticalAlign=top;fillColor=#2875E2;strokeColor=#ffffff;points=[[0.005,0.63,0],[0.1,0.2,0],[0.9,0.2,0],[0.5,0,0],[0.995,0.63,0],[0.72,0.99,0],[0.5,1,0],[0.28,0.99,0]];shape=mxgraph.kubernetes.icon2;prIcon=pod" vertex="1" parent="1">
          <mxGeometry x="821" y="183" width="106.27" height="102" as="geometry" />
        </mxCell>
        <mxCell id="Wt4DMF_DOXwwDk3LnzIc-74" style="edgeStyle=orthogonalEdgeStyle;rounded=0;orthogonalLoop=1;jettySize=auto;html=1;exitX=0.75;exitY=1;exitDx=0;exitDy=0;entryX=0.75;entryY=0;entryDx=0;entryDy=0;" edge="1" parent="1" source="Wt4DMF_DOXwwDk3LnzIc-38" target="Wt4DMF_DOXwwDk3LnzIc-33">
          <mxGeometry relative="1" as="geometry" />
        </mxCell>
        <mxCell id="Wt4DMF_DOXwwDk3LnzIc-38" value="external client" style="whiteSpace=wrap;html=1;fillColor=#d5e8d4;strokeColor=#82b366;" vertex="1" parent="1">
          <mxGeometry x="-92" y="-61" width="204" height="60" as="geometry" />
        </mxCell>
        <mxCell id="Wt4DMF_DOXwwDk3LnzIc-40" value="New order" style="text;html=1;align=center;verticalAlign=middle;resizable=0;points=[];autosize=1;strokeColor=none;fillColor=none;" vertex="1" parent="1">
          <mxGeometry x="-10" y="6" width="73" height="26" as="geometry" />
        </mxCell>
        <mxCell id="Wt4DMF_DOXwwDk3LnzIc-54" value="kafka-cluster-kafka-bootstrap" style="text;whiteSpace=wrap;" vertex="1" parent="1">
          <mxGeometry x="263.00000000000006" y="108" width="183" height="36" as="geometry" />
        </mxCell>
        <mxCell id="Wt4DMF_DOXwwDk3LnzIc-72" style="edgeStyle=orthogonalEdgeStyle;rounded=0;orthogonalLoop=1;jettySize=auto;html=1;exitX=0.005;exitY=0.63;exitDx=0;exitDy=0;exitPerimeter=0;entryX=0;entryY=0.5;entryDx=0;entryDy=0;" edge="1" parent="1" source="Wt4DMF_DOXwwDk3LnzIc-63" target="Wt4DMF_DOXwwDk3LnzIc-13">
          <mxGeometry relative="1" as="geometry" />
        </mxCell>
        <mxCell id="Wt4DMF_DOXwwDk3LnzIc-63" value="order-app" style="aspect=fixed;sketch=0;html=1;dashed=0;whitespace=wrap;verticalLabelPosition=bottom;verticalAlign=top;fillColor=#2875E2;strokeColor=#ffffff;points=[[0.005,0.63,0],[0.1,0.2,0],[0.9,0.2,0],[0.5,0,0],[0.995,0.63,0],[0.72,0.99,0],[0.5,1,0],[0.28,0.99,0]];shape=mxgraph.kubernetes.icon2;prIcon=pod" vertex="1" parent="1">
          <mxGeometry x="-41.84" y="182.6" width="106.68" height="102.4" as="geometry" />
        </mxCell>
        <mxCell id="Wt4DMF_DOXwwDk3LnzIc-65" value="order-service" style="text;whiteSpace=wrap;" vertex="1" parent="1">
          <mxGeometry x="-75" y="108" width="85" height="36" as="geometry" />
        </mxCell>
        <mxCell id="Wt4DMF_DOXwwDk3LnzIc-66" style="edgeStyle=orthogonalEdgeStyle;rounded=0;orthogonalLoop=1;jettySize=auto;html=1;exitX=0.9;exitY=0.2;exitDx=0;exitDy=0;exitPerimeter=0;entryX=0;entryY=0.5;entryDx=0;entryDy=0;entryPerimeter=0;" edge="1" parent="1" source="Wt4DMF_DOXwwDk3LnzIc-63" target="Wt4DMF_DOXwwDk3LnzIc-23">
          <mxGeometry relative="1" as="geometry" />
        </mxCell>
        <mxCell id="Wt4DMF_DOXwwDk3LnzIc-67" style="edgeStyle=orthogonalEdgeStyle;rounded=0;orthogonalLoop=1;jettySize=auto;html=1;exitX=1;exitY=0.51;exitDx=0;exitDy=0;exitPerimeter=0;entryX=0.1;entryY=0.2;entryDx=0;entryDy=0;entryPerimeter=0;" edge="1" parent="1" source="Wt4DMF_DOXwwDk3LnzIc-23" target="Wt4DMF_DOXwwDk3LnzIc-37">
          <mxGeometry relative="1" as="geometry" />
        </mxCell>
        <mxCell id="Wt4DMF_DOXwwDk3LnzIc-68" style="edgeStyle=orthogonalEdgeStyle;rounded=0;orthogonalLoop=1;jettySize=auto;html=1;exitX=0.28;exitY=0.99;exitDx=0;exitDy=0;exitPerimeter=0;entryX=1;entryY=0.51;entryDx=0;entryDy=0;entryPerimeter=0;" edge="1" parent="1" source="Wt4DMF_DOXwwDk3LnzIc-37" target="Wt4DMF_DOXwwDk3LnzIc-24">
          <mxGeometry relative="1" as="geometry">
            <Array as="points">
              <mxPoint x="763" y="284" />
              <mxPoint x="763" y="284" />
            </Array>
          </mxGeometry>
        </mxCell>
        <mxCell id="Wt4DMF_DOXwwDk3LnzIc-69" style="edgeStyle=orthogonalEdgeStyle;rounded=0;orthogonalLoop=1;jettySize=auto;html=1;exitX=0;exitY=0.5;exitDx=0;exitDy=0;exitPerimeter=0;entryX=0.72;entryY=0.99;entryDx=0;entryDy=0;entryPerimeter=0;" edge="1" parent="1" source="Wt4DMF_DOXwwDk3LnzIc-24" target="Wt4DMF_DOXwwDk3LnzIc-63">
          <mxGeometry relative="1" as="geometry">
            <Array as="points">
              <mxPoint x="138" y="284" />
              <mxPoint x="138" y="284" />
            </Array>
          </mxGeometry>
        </mxCell>
        <mxCell id="Wt4DMF_DOXwwDk3LnzIc-70" value="postgres-service" style="text;whiteSpace=wrap;" vertex="1" parent="1">
          <mxGeometry x="265.83" y="369" width="103" height="36" as="geometry" />
        </mxCell>
        <mxCell id="Wt4DMF_DOXwwDk3LnzIc-71" value="postgres" style="aspect=fixed;sketch=0;html=1;dashed=0;whitespace=wrap;verticalLabelPosition=bottom;verticalAlign=top;fillColor=#2875E2;strokeColor=#ffffff;points=[[0.005,0.63,0],[0.1,0.2,0],[0.9,0.2,0],[0.5,0,0],[0.995,0.63,0],[0.72,0.99,0],[0.5,1,0],[0.28,0.99,0]];shape=mxgraph.kubernetes.icon2;prIcon=pod" vertex="1" parent="1">
          <mxGeometry x="394" y="425" width="106.27" height="102" as="geometry" />
        </mxCell>
        <mxCell id="Wt4DMF_DOXwwDk3LnzIc-76" value="Find order with status" style="text;html=1;align=center;verticalAlign=middle;resizable=0;points=[];autosize=1;strokeColor=none;fillColor=none;" vertex="1" parent="1">
          <mxGeometry x="112" y="8" width="133" height="26" as="geometry" />
        </mxCell>
        <mxCell id="Wt4DMF_DOXwwDk3LnzIc-77" value="(Choreography-based saga)" style="text;whiteSpace=wrap;" vertex="1" parent="1">
          <mxGeometry x="363.74789473684206" y="54.00105263157897" width="170" height="36" as="geometry" />
        </mxCell>
        <mxCell id="Wt4DMF_DOXwwDk3LnzIc-81" value="Consumes" style="text;html=1;align=center;verticalAlign=middle;resizable=0;points=[];autosize=1;strokeColor=none;fillColor=none;" vertex="1" parent="1">
          <mxGeometry x="150.20999999999998" y="261" width="75" height="26" as="geometry" />
        </mxCell>
        <mxCell id="Wt4DMF_DOXwwDk3LnzIc-82" value="Emit signal with order status" style="text;html=1;align=center;verticalAlign=middle;resizable=0;points=[];autosize=1;strokeColor=none;fillColor=none;" vertex="1" parent="1">
          <mxGeometry x="653" y="256" width="168" height="26" as="geometry" />
        </mxCell>
        <mxCell id="Wt4DMF_DOXwwDk3LnzIc-83" value="Consumes" style="text;html=1;align=center;verticalAlign=middle;resizable=0;points=[];autosize=1;strokeColor=none;fillColor=none;" vertex="1" parent="1">
          <mxGeometry x="699.5" y="178" width="75" height="26" as="geometry" />
        </mxCell>
        <mxCell id="Wt4DMF_DOXwwDk3LnzIc-90" value="Send order product" style="text;html=1;align=center;verticalAlign=middle;whiteSpace=wrap;rounded=0;" vertex="1" parent="1">
          <mxGeometry x="124" y="176" width="117" height="30" as="geometry" />
        </mxCell>
        <mxCell id="Wt4DMF_DOXwwDk3LnzIc-91" value="Services sharing the same database, to simplify the example" style="text;html=1;align=center;verticalAlign=middle;resizable=0;points=[];autosize=1;strokeColor=none;fillColor=none;" vertex="1" parent="1">
          <mxGeometry x="276.64" y="583" width="341" height="26" as="geometry" />
        </mxCell>
        <mxCell id="Wt4DMF_DOXwwDk3LnzIc-93" value="nodePort: 31711" style="text;whiteSpace=wrap;" vertex="1" parent="1">
          <mxGeometry x="49.00105263157923" y="129.49578947368417" width="116" height="36" as="geometry" />
        </mxCell>
        <mxCell id="Wt4DMF_DOXwwDk3LnzIc-97" value="" style="image;sketch=0;aspect=fixed;html=1;points=[];align=center;fontSize=12;image=img/lib/mscae/Kubernetes.svg;" vertex="1" parent="1">
          <mxGeometry x="1013" y="20" width="37.5" height="36" as="geometry" />
        </mxCell>
      </root>
    </mxGraphModel>
  </diagram>
</mxfile>
